<svg width="53" height="56" viewBox="0 0 53 56" fill="none" xmlns="http://www.w3.org/2000/svg">
<g clip-path="url(#clip0_149_58)">
<path fill-rule="evenodd" clip-rule="evenodd" d="M33.2689 5.74745C33.4141 5.59719 33.5865 5.47798 33.7763 5.39664C33.9662 5.31531 34.1697 5.27344 34.3752 5.27344C34.5807 5.27344 34.7842 5.31531 34.974 5.39664C35.1639 5.47798 35.3363 5.59719 35.4814 5.74745L47.9814 18.6551C48.127 18.8049 48.2424 18.983 48.3212 19.179C48.3999 19.375 48.4405 19.5852 48.4405 19.7974C48.4405 20.0096 48.3999 20.2197 48.3212 20.4158C48.2424 20.6118 48.127 20.7898 47.9814 20.9397L42.0377 27.0773L39.4471 37.768C39.2501 38.582 38.8515 39.3292 38.2905 39.9362C37.7295 40.5432 37.0253 40.9892 36.2471 41.2305L3.91895 51.2468L13.6189 17.8612C13.8527 17.0586 14.2844 16.3324 14.8716 15.7537C15.4589 15.175 16.1816 14.7638 16.9689 14.5601L27.3221 11.8882L33.2689 5.74745ZM27.6439 15.1313L17.7283 17.6902C17.4651 17.7581 17.2235 17.8955 17.0274 18.089C16.8312 18.2825 16.6872 18.5254 16.6096 18.7938L8.57832 46.4322L35.3502 38.1391C35.6086 38.0582 35.8423 37.9096 36.0285 37.7077C36.2147 37.5058 36.3471 37.2575 36.4127 36.9871L38.8939 26.7449L27.6439 15.1281V15.1313Z" fill="#000C74"/>
<path fill-rule="evenodd" clip-rule="evenodd" d="M8.85029 46.3481L25.0003 32.7048C25.6184 32.7048 26.2225 32.5155 26.7365 32.1609C27.2504 31.8064 27.6509 31.3024 27.8874 30.7128C28.1239 30.1231 28.1858 29.4743 28.0652 28.8483C27.9447 28.2224 27.647 27.6474 27.21 27.1961C26.773 26.7448 26.2161 26.4375 25.61 26.313C25.0038 26.1885 24.3754 26.2524 23.8044 26.4966C23.2334 26.7408 22.7453 27.1544 22.402 27.6851C22.0586 28.2158 21.8753 28.8397 21.8753 29.4779L8.66279 46.1545L8.58154 46.432L8.85029 46.3481Z" fill="#000C74"/>
</g>
<defs>
<clipPath id="clip0_149_58">
<rect width="53" height="54.7283" fill="white" transform="translate(0 0.56543)"/>
</clipPath>
</defs>
</svg>
