<svg width="42" height="42" viewBox="0 0 42 42" fill="none" xmlns="http://www.w3.org/2000/svg">
<path d="M20.8333 37.5C25.2536 37.5 29.4928 35.7441 32.6184 32.6184C35.7441 29.4928 37.5 25.2536 37.5 20.8333C37.5 16.4131 35.7441 12.1738 32.6184 9.04822C29.4928 5.92261 25.2536 4.16667 20.8333 4.16667C16.4131 4.16667 12.1738 5.92261 9.04822 9.04822C5.92261 12.1738 4.16667 16.4131 4.16667 20.8333C4.16667 25.2536 5.92261 29.4928 9.04822 32.6184C12.1738 35.7441 16.4131 37.5 20.8333 37.5ZM20.8333 41.6667C9.32708 41.6667 0 32.3396 0 20.8333C0 9.32708 9.32708 0 20.8333 0C32.3396 0 41.6667 9.32708 41.6667 20.8333C41.6667 32.3396 32.3396 41.6667 20.8333 41.6667Z" fill="#0D0D0D"/>
<path d="M30.25 12H12.25C11.0125 12 10.0112 13.0125 10.0112 14.25L10 27.75C10 28.9875 11.0125 30 12.25 30H30.25C31.4875 30 32.5 28.9875 32.5 27.75V14.25C32.5 13.0125 31.4875 12 30.25 12ZM30.25 27.75H12.25V16.5L21.25 22.125L30.25 16.5V27.75ZM21.25 19.875L12.25 14.25H30.25L21.25 19.875Z" fill="#0D0D0D"/>
</svg>
