<svg width="42" height="42" viewBox="0 0 42 42" fill="none" xmlns="http://www.w3.org/2000/svg">
<path d="M20.8351 1.30176C10.0474 1.30176 1.30225 10.0469 1.30225 20.8346C1.30225 31.6222 10.0474 40.3674 20.8351 40.3674C31.6227 40.3674 40.3679 31.6222 40.3679 20.8346C40.3679 10.0469 31.6227 1.30176 20.8351 1.30176ZM32.8053 32.8048C29.8371 35.764 25.8735 37.5123 21.6868 37.7088C17.5001 37.9053 13.3902 36.5361 10.1579 33.8679C6.92556 31.1997 4.80241 27.4237 4.20212 23.2755C3.60183 19.1274 4.56741 14.9044 6.9107 11.4293C9.25399 7.95426 12.8071 5.47607 16.8778 4.47765C20.9485 3.47923 25.2451 4.0321 28.9304 6.02853C32.6157 8.02497 35.4257 11.3219 36.8129 15.277C38.2001 19.2322 38.0651 23.5621 36.4342 27.4231C35.5842 29.4349 34.3518 31.2626 32.8053 32.8048Z" fill="black"/>
<path d="M11.5828 19.6163L13.4244 21.4578L19.5327 15.3496V30.6013H22.1371V15.3496L28.2454 21.4578L30.087 19.6163L20.8349 10.3643L11.5828 19.6163Z" fill="black"/>
</svg>
