<svg width="42" height="42" viewBox="0 0 42 42" fill="none" xmlns="http://www.w3.org/2000/svg">
<path d="M18.1146 14.4514V17.3202H16.0146V20.8264H18.1146V31.2493H22.4313V20.8264H25.3271C25.3271 20.8264 25.6001 19.1452 25.7313 17.3056H22.448V14.9098C22.448 14.5493 22.9188 14.0681 23.3855 14.0681H25.7355V10.416H22.5376C18.0084 10.416 18.1146 13.9264 18.1146 14.4514Z" fill="#0D0D0D"/>
<path d="M20.8333 37.5C25.2536 37.5 29.4928 35.7441 32.6184 32.6184C35.7441 29.4928 37.5 25.2536 37.5 20.8333C37.5 16.4131 35.7441 12.1738 32.6184 9.04822C29.4928 5.92261 25.2536 4.16667 20.8333 4.16667C16.4131 4.16667 12.1738 5.92261 9.04822 9.04822C5.92261 12.1738 4.16667 16.4131 4.16667 20.8333C4.16667 25.2536 5.92261 29.4928 9.04822 32.6184C12.1738 35.7441 16.4131 37.5 20.8333 37.5ZM20.8333 41.6667C9.32708 41.6667 0 32.3396 0 20.8333C0 9.32708 9.32708 0 20.8333 0C32.3396 0 41.6667 9.32708 41.6667 20.8333C41.6667 32.3396 32.3396 41.6667 20.8333 41.6667Z" fill="#0D0D0D"/>
</svg>
