<svg width="20" height="20" viewBox="0 0 20 20" fill="none" xmlns="http://www.w3.org/2000/svg">
<g clip-path="url(#clip0_168_68)">
<path d="M20 10.0002V9.99516C20 7.036 18.7117 4.3785 16.6658 2.551L16.6558 2.54266C16.6306 2.51542 16.6023 2.49111 16.5717 2.47016L16.57 2.46933C14.753 0.873937 12.4163 -0.00371652 9.99834 0.000995438C7.47167 0.000995438 5.165 0.939329 3.40667 2.48766L3.4175 2.4785C3.39631 2.49457 3.37677 2.51272 3.35917 2.53266V2.5335C2.30211 3.46949 1.456 4.61941 0.876884 5.90707C0.297771 7.19474 -0.00112241 8.59076 3.16722e-06 10.0027C3.16722e-06 12.961 1.28667 15.6185 3.33084 17.4468L3.34084 17.4552C3.36731 17.4852 3.39692 17.5123 3.42917 17.536L3.43084 17.5368C5.24737 19.1299 7.58224 20.0062 9.99834 20.0018C12.4257 20.0056 14.7706 19.1211 16.5908 17.5152L16.58 17.5243C17.6554 16.5894 18.5174 15.4343 19.1077 14.1374C19.698 12.8404 20.0029 11.4318 20.0017 10.0068V10.001L20 10.0002ZM16.2817 16.5043C15.7863 16.1036 15.2536 15.7515 14.6908 15.4527L14.6367 15.426C15.1475 13.9535 15.455 12.256 15.4842 10.4902V10.4768H19.035C18.9153 12.7613 17.932 14.915 16.2842 16.5018L16.2817 16.5043ZM10.4767 15.2502C11.5458 15.3077 12.545 15.5427 13.4667 15.9252L13.4067 15.9035C12.6683 17.5868 11.6292 18.7435 10.4767 18.9977V15.2502ZM10.4767 14.2968V10.4768H14.5333C14.5012 12.0587 14.2269 13.6263 13.72 15.1252L13.7525 15.016C12.7179 14.5908 11.6175 14.3477 10.5 14.2977L10.4775 14.2968H10.4767ZM10.4767 9.52349V5.70349C11.6243 5.65112 12.7541 5.39989 13.8158 4.96099L13.75 4.98516C14.2125 6.33433 14.4967 7.88933 14.5333 9.50599V9.52349H10.4767ZM10.4767 4.75016V1.00433C11.6292 1.2585 12.6683 2.41016 13.4067 4.0985C12.545 4.45683 11.5458 4.69099 10.5008 4.74933L10.4767 4.75016ZM12.855 1.41683C13.837 1.74436 14.7553 2.23821 15.57 2.87683L15.5508 2.86183C15.1817 3.15183 14.7675 3.42516 14.3308 3.66266L14.2842 3.68599C13.9313 2.85327 13.4462 2.08305 12.8475 1.40516L12.855 1.41433V1.41683ZM9.52167 1.00683V4.75016C8.49375 4.69772 7.48243 4.46942 6.53167 4.07516L6.59167 4.09683C7.33334 2.4135 8.37084 1.25766 9.52334 1.0035L9.52167 1.00683ZM5.715 3.6835C5.26328 3.44046 4.83286 3.15974 4.42834 2.84433L4.44834 2.85933C5.23928 2.23946 6.12893 1.75716 7.08 1.43266L7.14334 1.4135C6.56035 2.07302 6.08532 2.82059 5.73584 3.62849L5.715 3.68266V3.6835ZM9.52334 5.70266V9.52266H5.46667C5.50334 7.88849 5.7875 6.33349 6.2825 4.87516L6.25 4.98433C7.28422 5.40889 8.384 5.65162 9.50084 5.70183L9.52334 5.70266ZM9.52334 10.476V14.296C8.3757 14.3484 7.24586 14.5996 6.18417 15.0385L6.25 15.0143C5.7875 13.666 5.50334 12.1102 5.46667 10.4935V10.476H9.52334ZM9.52334 15.2493V18.9952C8.37084 18.741 7.33167 17.5893 6.59334 15.901C7.455 15.5427 8.45417 15.3093 9.49917 15.251L9.52334 15.2502V15.2493ZM7.14834 18.5827C6.16663 18.2561 5.24829 17.7634 4.43334 17.126L4.45334 17.141C4.8225 16.851 5.23667 16.5777 5.67334 16.3402L5.72 16.3168C6.06991 17.1499 6.55505 17.9194 7.15584 18.5943L7.14834 18.586V18.5827ZM14.285 16.316C14.7683 16.5785 15.1825 16.851 15.5717 17.1552L15.5517 17.1402C14.7607 17.76 13.8711 18.2423 12.92 18.5668L12.8567 18.586C13.4396 17.9268 13.9147 17.1795 14.2642 16.3718L14.285 16.3177V16.316ZM19.035 9.52349H15.4842C15.4586 7.79929 15.1611 6.08992 14.6025 4.45849L14.6367 4.57349C15.2253 4.26355 15.7827 3.8974 16.3008 3.48016L16.2808 3.49516C17.9252 5.07602 18.9089 7.22169 19.0333 9.49933L19.0342 9.52266L19.035 9.52349ZM3.71834 3.496C4.19834 3.886 4.7375 4.24349 5.30917 4.54766L5.36334 4.57433C4.8525 6.04683 4.545 7.74433 4.51584 9.51016V9.52349H0.96417C1.08391 7.239 2.06721 5.08533 3.715 3.49849L3.7175 3.496H3.71834ZM0.965003 10.4768H4.51584C4.54138 12.201 4.83893 13.9104 5.3975 15.5418L5.36334 15.4268C4.7375 15.7593 4.19917 16.1168 3.69917 16.5202L3.71917 16.5052C2.07478 14.9243 1.09114 12.7786 0.96667 10.501L0.965837 10.4777L0.965003 10.4768Z" fill="black"/>
</g>
<defs>
<clipPath id="clip0_168_68">
<rect width="20" height="20" fill="white"/>
</clipPath>
</defs>
</svg>
