<svg width="24" height="27" viewBox="0 0 24 27" fill="none" xmlns="http://www.w3.org/2000/svg">
<path d="M21.2788 20.5927C20.6933 19.9836 20.1235 19.3571 19.57 18.7137C19.105 18.2005 18.825 17.8271 18.825 17.8271L15.325 16.0119C16.7262 14.2858 17.4996 12.0638 17.5 9.76254C17.5 4.52326 13.575 0.258789 8.75 0.258789C3.925 0.258789 0 4.52326 0 9.76254C0 15.0018 3.925 19.2663 8.75 19.2663C10.9538 19.2663 12.9625 18.3702 14.5038 16.9053L16.175 20.7068C16.175 20.7068 16.5188 21.0109 16.9913 21.516C17.475 22.0088 18.1113 22.6754 18.7213 23.3719L20.4188 25.2618L21.1738 26.1389L23.825 23.2592L23.0175 22.4392C22.5438 21.9341 21.9113 21.2634 21.2788 20.5927ZM8.75 16.5509C5.30375 16.5509 2.5 13.5057 2.5 9.76254C2.5 6.01942 5.30375 2.97415 8.75 2.97415C12.1963 2.97415 15 6.01942 15 9.76254C15 13.5057 12.1963 16.5509 8.75 16.5509Z" fill="white"/>
</svg>
