<svg width="42" height="42" viewBox="0 0 42 42" fill="none" xmlns="http://www.w3.org/2000/svg">
<path d="M16.8 11H25.2C28.4 11 31 13.6 31 16.8V25.2C31 26.7383 30.3889 28.2135 29.3012 29.3012C28.2135 30.3889 26.7383 31 25.2 31H16.8C13.6 31 11 28.4 11 25.2V16.8C11 15.2617 11.6111 13.7865 12.6988 12.6988C13.7865 11.6111 15.2617 11 16.8 11ZM16.6 13C15.6452 13 14.7295 13.3793 14.0544 14.0544C13.3793 14.7295 13 15.6452 13 16.6V25.4C13 27.39 14.61 29 16.6 29H25.4C26.3548 29 27.2705 28.6207 27.9456 27.9456C28.6207 27.2705 29 26.3548 29 25.4V16.6C29 14.61 27.39 13 25.4 13H16.6ZM26.25 14.5C26.5815 14.5 26.8995 14.6317 27.1339 14.8661C27.3683 15.1005 27.5 15.4185 27.5 15.75C27.5 16.0815 27.3683 16.3995 27.1339 16.6339C26.8995 16.8683 26.5815 17 26.25 17C25.9185 17 25.6005 16.8683 25.3661 16.6339C25.1317 16.3995 25 16.0815 25 15.75C25 15.4185 25.1317 15.1005 25.3661 14.8661C25.6005 14.6317 25.9185 14.5 26.25 14.5ZM21 16C22.3261 16 23.5979 16.5268 24.5355 17.4645C25.4732 18.4021 26 19.6739 26 21C26 22.3261 25.4732 23.5979 24.5355 24.5355C23.5979 25.4732 22.3261 26 21 26C19.6739 26 18.4021 25.4732 17.4645 24.5355C16.5268 23.5979 16 22.3261 16 21C16 19.6739 16.5268 18.4021 17.4645 17.4645C18.4021 16.5268 19.6739 16 21 16ZM21 18C20.2044 18 19.4413 18.3161 18.8787 18.8787C18.3161 19.4413 18 20.2044 18 21C18 21.7956 18.3161 22.5587 18.8787 23.1213C19.4413 23.6839 20.2044 24 21 24C21.7956 24 22.5587 23.6839 23.1213 23.1213C23.6839 22.5587 24 21.7956 24 21C24 20.2044 23.6839 19.4413 23.1213 18.8787C22.5587 18.3161 21.7956 18 21 18Z" fill="#0D0D0D"/>
<path d="M20.8333 37.5C25.2536 37.5 29.4928 35.7441 32.6184 32.6184C35.7441 29.4928 37.5 25.2536 37.5 20.8333C37.5 16.4131 35.7441 12.1738 32.6184 9.04822C29.4928 5.92261 25.2536 4.16667 20.8333 4.16667C16.4131 4.16667 12.1738 5.92261 9.04822 9.04822C5.92261 12.1738 4.16667 16.4131 4.16667 20.8333C4.16667 25.2536 5.92261 29.4928 9.04822 32.6184C12.1738 35.7441 16.4131 37.5 20.8333 37.5ZM20.8333 41.6667C9.32708 41.6667 0 32.3396 0 20.8333C0 9.32708 9.32708 0 20.8333 0C32.3396 0 41.6667 9.32708 41.6667 20.8333C41.6667 32.3396 32.3396 41.6667 20.8333 41.6667Z" fill="#0D0D0D"/>
</svg>
