<svg width="42" height="42" viewBox="0 0 42 42" fill="none" xmlns="http://www.w3.org/2000/svg">
<path d="M20.8333 37.5C25.2536 37.5 29.4928 35.7441 32.6184 32.6184C35.7441 29.4928 37.5 25.2536 37.5 20.8333C37.5 16.4131 35.7441 12.1738 32.6184 9.04822C29.4928 5.92261 25.2536 4.16667 20.8333 4.16667C16.4131 4.16667 12.1738 5.92261 9.04822 9.04822C5.92261 12.1738 4.16667 16.4131 4.16667 20.8333C4.16667 25.2536 5.92261 29.4928 9.04822 32.6184C12.1738 35.7441 16.4131 37.5 20.8333 37.5ZM20.8333 41.6667C9.32708 41.6667 0 32.3396 0 20.8333C0 9.32708 9.32708 0 20.8333 0C32.3396 0 41.6667 9.32708 41.6667 20.8333C41.6667 32.3396 32.3396 41.6667 20.8333 41.6667Z" fill="#0D0D0D"/>
<path d="M26.9232 13.5957H14.7441C12.3545 13.5957 10.417 15.5124 10.417 17.8749V23.8957C10.417 26.2603 12.3545 28.1749 14.7441 28.1749H26.9232C29.3128 28.1749 31.2503 26.2582 31.2503 23.8957V17.8749C31.2503 15.5103 29.3128 13.5957 26.9232 13.5957ZM23.9982 21.179L18.3003 23.8665C18.2655 23.883 18.227 23.8904 18.1885 23.8881C18.1501 23.8858 18.1128 23.8738 18.0802 23.8532C18.0476 23.8326 18.0207 23.8042 18.002 23.7704C17.9833 23.7367 17.9734 23.6988 17.9732 23.6603V18.1186C17.9736 18.0796 17.9839 18.0413 18.0032 18.0073C18.0225 17.9734 18.0502 17.9449 18.0836 17.9247C18.117 17.9044 18.155 17.8931 18.194 17.8916C18.233 17.8902 18.2718 17.8988 18.3066 17.9165L24.0024 20.7707C24.0399 20.7903 24.0712 20.8198 24.0929 20.8561C24.1146 20.8923 24.1259 20.9339 24.1254 20.9761C24.125 21.0184 24.1129 21.0597 24.0904 21.0955C24.068 21.1313 24.0361 21.1602 23.9982 21.179Z" fill="#0D0D0D"/>
</svg>
