<svg width="45" height="48" viewBox="0 0 45 48" fill="none" xmlns="http://www.w3.org/2000/svg">
<g clip-path="url(#clip0_149_52)">
<path d="M43.5758 42.8511L40.5001 33.3206H37.1251L38.9993 42.6141H6.00083L7.87508 33.3206H4.50008L1.42208 42.8511C0.641329 45.2767 2.02508 47.2608 4.50008 47.2608H40.5001C42.9751 47.2608 44.3588 45.2767 43.5758 42.8511ZM33.7501 12.4103C33.7501 9.32932 32.5648 6.37453 30.455 4.19595C28.3452 2.01737 25.4838 0.793457 22.5001 0.793457C19.5164 0.793457 16.6549 2.01737 14.5451 4.19595C12.4353 6.37453 11.2501 9.32932 11.2501 12.4103C11.2501 23.5044 22.5001 35.644 22.5001 35.644C22.5001 35.644 33.7501 23.5044 33.7501 12.4103ZM16.4251 12.5497C16.4251 11.726 16.5822 10.9104 16.8876 10.1494C17.1929 9.38849 17.6404 8.6971 18.2045 8.11478C18.7687 7.53245 19.4384 7.0706 20.1754 6.7556C20.9125 6.4406 21.7024 6.27863 22.5001 6.27893C24.111 6.27893 25.6559 6.93972 26.795 8.11594C27.934 9.29216 28.574 10.8874 28.574 12.5509C28.574 14.2143 27.934 15.8096 26.795 16.9858C25.6559 18.162 24.111 18.8228 22.5001 18.8228C20.8889 18.8228 19.3437 18.1619 18.2044 16.9855C17.0651 15.809 16.4251 14.2134 16.4251 12.5497Z" fill="#000C74"/>
</g>
<defs>
<clipPath id="clip0_149_52">
<rect width="45" height="46.4674" fill="white" transform="translate(0 0.793457)"/>
</clipPath>
</defs>
</svg>
