<svg width="50" height="53" viewBox="0 0 50 53" fill="none" xmlns="http://www.w3.org/2000/svg">
<g clip-path="url(#clip0_149_67)">
<path d="M43.0554 12.1367H31.9443V15.0051H43.0554V45.1228H31.9443V47.9912H45.8332V15.0051C45.8332 14.2443 45.5406 13.5148 45.0196 12.9768C44.4987 12.4389 43.7922 12.1367 43.0554 12.1367Z" fill="#000C74"/>
<path d="M27.6112 4.96582H8.50011C7.71919 4.96582 6.97026 5.28615 6.41807 5.85635C5.86588 6.42655 5.55566 7.1999 5.55566 8.00628V47.9912H30.5557V8.00628C30.5557 7.1999 30.2454 6.42655 29.6933 5.85635C29.1411 5.28615 28.3921 4.96582 27.6112 4.96582ZM27.7779 45.1228H23.6112V40.8203H12.5001V45.1228H8.33344V8.00628C8.33344 7.98368 8.33775 7.9613 8.34613 7.94042C8.3545 7.91954 8.36678 7.90057 8.38226 7.88459C8.39773 7.8686 8.41611 7.85593 8.43633 7.84728C8.45655 7.83863 8.47822 7.83418 8.50011 7.83418H27.6112C27.6331 7.83418 27.6548 7.83863 27.675 7.84728C27.6952 7.85593 27.7136 7.8686 27.7291 7.88459C27.7445 7.90057 27.7568 7.91954 27.7652 7.94042C27.7736 7.9613 27.7779 7.98368 27.7779 8.00628V45.1228Z" fill="#000C74"/>
<path d="M11.1113 12.1367H13.8891V15.0051H11.1113V12.1367Z" fill="#000C74"/>
<path d="M16.6665 12.1367H19.4443V15.0051H16.6665V12.1367Z" fill="#000C74"/>
<path d="M22.2222 12.1367H24.9999V15.0051H22.2222V12.1367Z" fill="#000C74"/>
<path d="M11.1113 19.3076H13.8891V22.176H11.1113V19.3076Z" fill="#000C74"/>
<path d="M16.6665 19.3076H19.4443V22.176H16.6665V19.3076Z" fill="#000C74"/>
<path d="M22.2222 19.3076H24.9999V22.176H22.2222V19.3076Z" fill="#000C74"/>
<path d="M11.1113 26.4785H13.8891V29.3469H11.1113V26.4785Z" fill="#000C74"/>
<path d="M16.6665 26.4785H19.4443V29.3469H16.6665V26.4785Z" fill="#000C74"/>
<path d="M22.2222 26.4785H24.9999V29.3469H22.2222V26.4785Z" fill="#000C74"/>
<path d="M11.1113 33.6494H13.8891V36.5178H11.1113V33.6494Z" fill="#000C74"/>
<path d="M16.6665 33.6494H19.4443V36.5178H16.6665V33.6494Z" fill="#000C74"/>
<path d="M22.2222 33.6494H24.9999V36.5178H22.2222V33.6494Z" fill="#000C74"/>
<path d="M31.9443 19.3076H34.7221V22.176H31.9443V19.3076Z" fill="#000C74"/>
<path d="M37.5 19.3076H40.2778V22.176H37.5V19.3076Z" fill="#000C74"/>
<path d="M31.9443 26.4785H34.7221V29.3469H31.9443V26.4785Z" fill="#000C74"/>
<path d="M37.5 26.4785H40.2778V29.3469H37.5V26.4785Z" fill="#000C74"/>
<path d="M31.9443 33.6494H34.7221V36.5178H31.9443V33.6494Z" fill="#000C74"/>
<path d="M37.5 33.6494H40.2778V36.5178H37.5V33.6494Z" fill="#000C74"/>
</g>
<defs>
<clipPath id="clip0_149_67">
<rect width="50" height="51.6304" fill="white" transform="translate(0 0.663086)"/>
</clipPath>
</defs>
</svg>
