<svg width="53" height="56" viewBox="0 0 53 56" fill="none" xmlns="http://www.w3.org/2000/svg">
<path d="M47.6998 13.5636V28.6331C46.5074 27.6156 45.1655 26.8009 43.7248 26.2195V13.5636C43.7248 13.3822 43.655 13.2082 43.5308 13.0799C43.4065 12.9516 43.238 12.8795 43.0623 12.8795H31.7998C29.9713 12.8795 28.4873 14.4119 28.4873 16.3V29.2351C26.6385 31.0128 25.2688 33.2561 24.5123 35.745V16.3C24.5123 14.4119 23.0283 12.8795 21.1998 12.8795H9.9373C9.7616 12.8795 9.59309 12.9516 9.46885 13.0799C9.3446 13.2082 9.2748 13.3822 9.2748 13.5636V42.296C9.2748 42.6736 9.5716 42.9801 9.9373 42.9801H21.1998C22.3155 42.9801 23.3039 42.4109 23.9028 41.538C24.0327 43.1087 24.3957 44.611 24.9575 46.0093C23.8604 46.6934 22.5725 47.0847 21.1998 47.0847H9.9373C8.70736 47.0847 7.5278 46.5802 6.6581 45.6821C5.7884 44.784 5.2998 43.566 5.2998 42.296V13.5636C5.2998 10.9203 7.3774 8.77491 9.9373 8.77491H21.1998C23.288 8.77491 25.1722 9.68066 26.4998 11.1364C27.1801 10.3898 28.0014 9.79506 28.913 9.3889C29.8245 8.98274 30.807 8.77378 31.7998 8.77491H43.0623C45.6222 8.77491 47.6998 10.9203 47.6998 13.5636Z" fill="#000C74"/>
<path d="M34.4762 38.8753C34.6008 35.7887 35.1387 33.0659 35.9072 31.0766C36.3498 29.9355 36.8427 29.1009 37.325 28.5755C37.802 28.0556 38.173 27.9297 38.4247 27.9297C38.6738 27.9297 39.0475 28.0556 39.5245 28.5755C40.0068 29.1009 40.4997 29.9355 40.9422 31.0766C41.7107 33.0659 42.2487 35.7887 42.3732 38.8753H34.4762ZM33.4454 30.0614C33.615 29.6235 33.8005 29.2021 33.9966 28.8053C31.9928 29.6337 30.2441 31.0077 28.9365 32.7809C27.629 34.5542 26.8115 36.6604 26.5713 38.8753H31.8236C31.9508 35.4986 32.5338 32.4174 33.4454 30.0614ZM43.4014 30.0614C43.2378 29.634 43.0547 29.2149 42.8529 28.8053C44.8567 29.6337 46.6054 31.0077 47.913 32.7809C49.2205 34.5542 50.0379 36.6604 50.2782 38.8753H45.0232C44.896 35.4986 44.313 32.4174 43.3988 30.0614H43.4014ZM45.0232 41.6118H50.2782C50.0379 43.8267 49.2205 45.9329 47.913 47.7062C46.6054 49.4794 44.8567 50.8534 42.8529 51.6818C43.049 51.285 43.2318 50.8636 43.4014 50.4257C44.3157 48.067 44.8987 44.9885 45.0259 41.6118H45.0232ZM39.5245 51.9116C39.0475 52.4315 38.6765 52.5574 38.4247 52.5574C38.1756 52.5574 37.802 52.4315 37.325 51.9116C36.8427 51.3862 36.3498 50.5516 35.9072 49.4105C35.1387 47.4212 34.6008 44.6984 34.4762 41.6118H42.3732C42.2487 44.6984 41.7107 47.4212 40.9422 49.4105C40.4997 50.5516 40.0068 51.3862 39.5245 51.9089V51.9116ZM26.5713 41.6118C26.8118 43.827 27.6296 45.9334 28.9376 47.7067C30.2457 49.48 31.995 50.8538 33.9992 51.6818C33.7956 51.2723 33.6108 50.8532 33.4454 50.4257C32.5338 48.067 31.9508 44.9885 31.8236 41.6118H26.5713Z" fill="#000C74"/>
</svg>
