<svg width="41" height="41" viewBox="0 0 41 41" fill="none" xmlns="http://www.w3.org/2000/svg">
<path d="M20.5 36.9C24.8496 36.9 29.021 35.1721 32.0966 32.0966C35.1721 29.021 36.9 24.8496 36.9 20.5C36.9 16.1504 35.1721 11.979 32.0966 8.90345C29.021 5.82785 24.8496 4.1 20.5 4.1C16.1504 4.1 11.979 5.82785 8.90345 8.90345C5.82785 11.979 4.1 16.1504 4.1 20.5C4.1 24.8496 5.82785 29.021 8.90345 32.0966C11.979 35.1721 16.1504 36.9 20.5 36.9V36.9ZM20.5 41C9.17785 41 0 31.8221 0 20.5C0 9.17785 9.17785 0 20.5 0C31.8221 0 41 9.17785 41 20.5C41 31.8221 31.8221 41 20.5 41Z" fill="#0D0D0D"/>
<path d="M29.7661 11.808H12.0541C10.8364 11.808 9.85116 12.8043 9.85116 14.022L9.84009 27.306C9.84009 28.5237 10.8364 29.52 12.0541 29.52H29.7661C30.9838 29.52 31.9801 28.5237 31.9801 27.306V14.022C31.9801 12.8043 30.9838 11.808 29.7661 11.808ZM29.7661 27.306H12.0541V16.236L20.9101 21.771L29.7661 16.236V27.306ZM20.9101 19.557L12.0541 14.022H29.7661L20.9101 19.557Z" fill="#0D0D0D"/>
</svg>
