<svg width="41" height="41" viewBox="0 0 41 41" fill="none" xmlns="http://www.w3.org/2000/svg">
<path d="M17.8247 14.2207V17.0435H15.7583V20.4937H17.8247V30.7498H22.0723V20.4937H24.9218C24.9218 20.4937 25.1904 18.8393 25.3195 17.0292H22.0887V14.6717C22.0887 14.317 22.552 13.8435 23.0112 13.8435H25.3236V10.2498H22.1769C17.7202 10.2498 17.8247 13.7041 17.8247 14.2207Z" fill="#0D0D0D"/>
<path d="M20.5 36.9C24.8496 36.9 29.021 35.1721 32.0966 32.0966C35.1721 29.021 36.9 24.8496 36.9 20.5C36.9 16.1504 35.1721 11.979 32.0966 8.90345C29.021 5.82785 24.8496 4.1 20.5 4.1C16.1504 4.1 11.979 5.82785 8.90345 8.90345C5.82785 11.979 4.1 16.1504 4.1 20.5C4.1 24.8496 5.82785 29.021 8.90345 32.0966C11.979 35.1721 16.1504 36.9 20.5 36.9V36.9ZM20.5 41C9.17785 41 0 31.8221 0 20.5C0 9.17785 9.17785 0 20.5 0C31.8221 0 41 9.17785 41 20.5C41 31.8221 31.8221 41 20.5 41Z" fill="#0D0D0D"/>
</svg>
