<svg width="41" height="41" viewBox="0 0 41 41" fill="none" xmlns="http://www.w3.org/2000/svg">
<path d="M16.5312 10.824H24.7968C27.9456 10.824 30.504 13.3824 30.504 16.5312V24.7968C30.504 26.3104 29.9027 27.7621 28.8324 28.8324C27.7621 29.9027 26.3104 30.504 24.7968 30.504H16.5312C13.3824 30.504 10.824 27.9456 10.824 24.7968V16.5312C10.824 15.0175 11.4253 13.5659 12.4956 12.4956C13.5659 11.4253 15.0175 10.824 16.5312 10.824V10.824ZM16.3344 12.792C15.3949 12.792 14.4938 13.1652 13.8295 13.8295C13.1652 14.4938 12.792 15.3949 12.792 16.3344V24.9936C12.792 26.9517 14.3762 28.536 16.3344 28.536H24.9936C25.9331 28.536 26.8341 28.1628 27.4984 27.4984C28.1628 26.8341 28.536 25.9331 28.536 24.9936V16.3344C28.536 14.3762 26.9517 12.792 24.9936 12.792H16.3344ZM25.83 14.268C26.1562 14.268 26.469 14.3976 26.6997 14.6282C26.9304 14.8589 27.06 15.1718 27.06 15.498C27.06 15.8242 26.9304 16.137 26.6997 16.3677C26.469 16.5984 26.1562 16.728 25.83 16.728C25.5038 16.728 25.1909 16.5984 24.9602 16.3677C24.7296 16.137 24.6 15.8242 24.6 15.498C24.6 15.1718 24.7296 14.8589 24.9602 14.6282C25.1909 14.3976 25.5038 14.268 25.83 14.268ZM20.664 15.744C21.9688 15.744 23.2203 16.2623 24.1429 17.185C25.0656 18.1077 25.584 19.3591 25.584 20.664C25.584 21.9688 25.0656 23.2203 24.1429 24.1429C23.2203 25.0656 21.9688 25.584 20.664 25.584C19.3591 25.584 18.1077 25.0656 17.185 24.1429C16.2623 23.2203 15.744 21.9688 15.744 20.664C15.744 19.3591 16.2623 18.1077 17.185 17.185C18.1077 16.2623 19.3591 15.744 20.664 15.744V15.744ZM20.664 17.712C19.8811 17.712 19.1302 18.023 18.5766 18.5766C18.023 19.1302 17.712 19.8811 17.712 20.664C17.712 21.4469 18.023 22.1977 18.5766 22.7514C19.1302 23.305 19.8811 23.616 20.664 23.616C21.4469 23.616 22.1977 23.305 22.7514 22.7514C23.305 22.1977 23.616 21.4469 23.616 20.664C23.616 19.8811 23.305 19.1302 22.7514 18.5766C22.1977 18.023 21.4469 17.712 20.664 17.712Z" fill="#0D0D0D"/>
<path d="M20.5 36.9C24.8496 36.9 29.021 35.1721 32.0966 32.0966C35.1721 29.021 36.9 24.8496 36.9 20.5C36.9 16.1504 35.1721 11.979 32.0966 8.90345C29.021 5.82785 24.8496 4.1 20.5 4.1C16.1504 4.1 11.979 5.82785 8.90345 8.90345C5.82785 11.979 4.1 16.1504 4.1 20.5C4.1 24.8496 5.82785 29.021 8.90345 32.0966C11.979 35.1721 16.1504 36.9 20.5 36.9V36.9ZM20.5 41C9.17785 41 0 31.8221 0 20.5C0 9.17785 9.17785 0 20.5 0C31.8221 0 41 9.17785 41 20.5C41 31.8221 31.8221 41 20.5 41Z" fill="#0D0D0D"/>
</svg>
