<svg width="20" height="20" viewBox="0 0 20 20" fill="none" xmlns="http://www.w3.org/2000/svg">
<g clip-path="url(#clip0_82_727)">
<path d="M20 9.99992V9.99492C20 7.03575 18.7117 4.37825 16.6658 2.55075L16.6558 2.54242C16.6306 2.51518 16.6023 2.49086 16.5717 2.46992L16.57 2.46908C14.753 0.873693 12.4163 -0.00396066 9.99834 0.000751297C7.47167 0.000751297 5.165 0.939084 3.40667 2.48742L3.4175 2.47825C3.39631 2.49433 3.37677 2.51247 3.35917 2.53242V2.53325C2.30211 3.46924 1.456 4.61916 0.876884 5.90683C0.297771 7.1945 -0.00112241 8.59052 3.16722e-06 10.0024C3.16722e-06 12.9607 1.28667 15.6183 3.33084 17.4466L3.34084 17.4549C3.36731 17.4849 3.39692 17.512 3.42917 17.5357L3.43084 17.5366C5.24737 19.1296 7.58224 20.006 9.99834 20.0016C12.4257 20.0053 14.7706 19.1208 16.5908 17.5149L16.58 17.5241C17.6554 16.5891 18.5174 15.4341 19.1077 14.1371C19.698 12.8402 20.0029 11.4316 20.0017 10.0066V10.0008L20 9.99992ZM16.2817 16.5041C15.7863 16.1034 15.2536 15.7512 14.6908 15.4524L14.6367 15.4257C15.1475 13.9532 15.455 12.2558 15.4842 10.4899V10.4766H19.035C18.9153 12.7611 17.932 14.9147 16.2842 16.5016L16.2817 16.5041ZM10.4767 15.2499C11.5458 15.3074 12.545 15.5424 13.4667 15.9249L13.4067 15.9032C12.6683 17.5866 11.6292 18.7433 10.4767 18.9974V15.2499ZM10.4767 14.2966V10.4766H14.5333C14.5012 12.0585 14.2269 13.6261 13.72 15.1249L13.7525 15.0157C12.7179 14.5905 11.6175 14.3475 10.5 14.2974L10.4775 14.2966H10.4767ZM10.4767 9.52325V5.70325C11.6243 5.65087 12.7541 5.39964 13.8158 4.96075L13.75 4.98492C14.2125 6.33408 14.4967 7.88908 14.5333 9.50575V9.52325H10.4767ZM10.4767 4.74992V1.00408C11.6292 1.25825 12.6683 2.40992 13.4067 4.09825C12.545 4.45658 11.5458 4.69075 10.5008 4.74908L10.4767 4.74992ZM12.855 1.41658C13.837 1.74411 14.7553 2.23797 15.57 2.87658L15.5508 2.86158C15.1817 3.15158 14.7675 3.42492 14.3308 3.66242L14.2842 3.68575C13.9313 2.85302 13.4462 2.08281 12.8475 1.40492L12.855 1.41408V1.41658ZM9.52167 1.00658V4.74992C8.49375 4.69748 7.48243 4.46917 6.53167 4.07492L6.59167 4.09658C7.33334 2.41325 8.37084 1.25742 9.52334 1.00325L9.52167 1.00658ZM5.715 3.68325C5.26328 3.44021 4.83286 3.1595 4.42834 2.84408L4.44834 2.85908C5.23928 2.23921 6.12893 1.75692 7.08 1.43242L7.14334 1.41325C6.56035 2.07278 6.08532 2.82034 5.73584 3.62825L5.715 3.68242V3.68325ZM9.52334 5.70242V9.52242H5.46667C5.50334 7.88825 5.7875 6.33325 6.2825 4.87492L6.25 4.98408C7.28422 5.40864 8.384 5.65138 9.50084 5.70158L9.52334 5.70242ZM9.52334 10.4757V14.2958C8.3757 14.3481 7.24586 14.5994 6.18417 15.0382L6.25 15.0141C5.7875 13.6658 5.50334 12.1099 5.46667 10.4932V10.4757H9.52334ZM9.52334 15.2491V18.9949C8.37084 18.7408 7.33167 17.5891 6.59334 15.9008C7.455 15.5424 8.45417 15.3091 9.49917 15.2508L9.52334 15.2499V15.2491ZM7.14834 18.5824C6.16663 18.2558 5.24829 17.7631 4.43334 17.1258L4.45334 17.1408C4.8225 16.8507 5.23667 16.5774 5.67334 16.3399L5.72 16.3166C6.06991 17.1497 6.55505 17.9192 7.15584 18.5941L7.14834 18.5858V18.5824ZM14.285 16.3158C14.7683 16.5783 15.1825 16.8507 15.5717 17.1549L15.5517 17.1399C14.7607 17.7598 13.8711 18.2421 12.92 18.5666L12.8567 18.5858C13.4396 17.9265 13.9147 17.1792 14.2642 16.3716L14.285 16.3174V16.3158ZM19.035 9.52325H15.4842C15.4586 7.79904 15.1611 6.08967 14.6025 4.45825L14.6367 4.57325C15.2253 4.2633 15.7827 3.89715 16.3008 3.47992L16.2808 3.49492C17.9252 5.07578 18.9089 7.22145 19.0333 9.49908L19.0342 9.52242L19.035 9.52325ZM3.71834 3.49575C4.19834 3.88575 4.7375 4.24325 5.30917 4.54742L5.36334 4.57408C4.8525 6.04658 4.545 7.74408 4.51584 9.50992V9.52325H0.96417C1.08391 7.23875 2.06721 5.08509 3.715 3.49825L3.7175 3.49575H3.71834ZM0.965003 10.4766H4.51584C4.54138 12.2008 4.83893 13.9102 5.3975 15.5416L5.36334 15.4266C4.7375 15.7591 4.19917 16.1166 3.69917 16.5199L3.71917 16.5049C2.07478 14.9241 1.09114 12.7784 0.96667 10.5007L0.965837 10.4774L0.965003 10.4766Z" fill="black"/>
</g>
<defs>
<clipPath id="clip0_82_727">
<rect width="20" height="20" fill="white"/>
</clipPath>
</defs>
</svg>
