<svg width="40" height="40" viewBox="0 0 40 40" fill="none" xmlns="http://www.w3.org/2000/svg">
<path d="M19.9999 3.33301C16.7036 3.33301 13.4812 4.31049 10.7404 6.14185C7.9996 7.9732 5.86339 10.5762 4.60193 13.6216C3.34047 16.6671 3.01042 20.0182 3.6535 23.2512C4.29659 26.4842 5.88394 29.4539 8.21481 31.7848C10.5457 34.1157 13.5154 35.703 16.7484 36.3461C19.9814 36.9892 23.3325 36.6591 26.378 35.3977C29.4234 34.1362 32.0264 32 33.8577 29.2592C35.6891 26.5184 36.6666 23.296 36.6666 19.9997C36.6666 17.811 36.2355 15.6437 35.3979 13.6216C34.5603 11.5995 33.3327 9.7622 31.785 8.21456C30.2374 6.66692 28.4001 5.43926 26.378 4.60168C24.3559 3.7641 22.1886 3.33301 19.9999 3.33301ZM19.9999 33.333C17.3628 33.333 14.785 32.551 12.5923 31.0859C10.3997 29.6209 8.6907 27.5385 7.68153 25.1021C6.67236 22.6658 6.40832 19.9849 6.92279 17.3985C7.43726 14.8121 8.70714 12.4363 10.5718 10.5716C12.4365 8.70688 14.8123 7.43701 17.3987 6.92254C19.9851 6.40807 22.666 6.67211 25.1024 7.68128C27.5387 8.69045 29.6211 10.3994 31.0862 12.5921C32.5513 14.7847 33.3333 17.3626 33.3333 19.9997C33.3333 23.5359 31.9285 26.9273 29.428 29.4278C26.9275 31.9283 23.5361 33.333 19.9999 33.333Z" fill="black"/>
<path d="M24.5166 15.4832C24.3616 15.327 24.1773 15.203 23.9742 15.1184C23.7711 15.0338 23.5533 14.9902 23.3332 14.9902C23.1132 14.9902 22.8954 15.0338 22.6923 15.1184C22.4892 15.203 22.3048 15.327 22.1499 15.4832L19.9999 17.6499L17.8499 15.4832C17.5361 15.1694 17.1104 14.9931 16.6666 14.9931C16.2227 14.9931 15.7971 15.1694 15.4832 15.4832C15.1694 15.7971 14.9931 16.2227 14.9931 16.6666C14.9931 17.1104 15.1694 17.5361 15.4832 17.8499L17.6499 19.9999L15.4832 22.1499C15.327 22.3048 15.203 22.4892 15.1184 22.6923C15.0338 22.8954 14.9902 23.1132 14.9902 23.3332C14.9902 23.5533 15.0338 23.7711 15.1184 23.9742C15.203 24.1773 15.327 24.3616 15.4832 24.5166C15.6382 24.6728 15.8225 24.7968 16.0256 24.8814C16.2287 24.966 16.4465 25.0096 16.6666 25.0096C16.8866 25.0096 17.1044 24.966 17.3075 24.8814C17.5106 24.7968 17.695 24.6728 17.8499 24.5166L19.9999 22.3499L22.1499 24.5166C22.3048 24.6728 22.4892 24.7968 22.6923 24.8814C22.8954 24.966 23.1132 25.0096 23.3332 25.0096C23.5533 25.0096 23.7711 24.966 23.9742 24.8814C24.1773 24.7968 24.3616 24.6728 24.5166 24.5166C24.6728 24.3616 24.7968 24.1773 24.8814 23.9742C24.966 23.7711 25.0096 23.5533 25.0096 23.3332C25.0096 23.1132 24.966 22.8954 24.8814 22.6923C24.7968 22.4892 24.6728 22.3048 24.5166 22.1499L22.3499 19.9999L24.5166 17.8499C24.6728 17.695 24.7968 17.5106 24.8814 17.3075C24.966 17.1044 25.0096 16.8866 25.0096 16.6666C25.0096 16.4465 24.966 16.2287 24.8814 16.0256C24.7968 15.8225 24.6728 15.6382 24.5166 15.4832Z" fill="black"/>
</svg>
