<svg width="41" height="41" viewBox="0 0 41 41" fill="none" xmlns="http://www.w3.org/2000/svg">
<path d="M20.5 1.28125C9.8858 1.28125 1.28125 9.8858 1.28125 20.5C1.28125 31.1142 9.8858 39.7187 20.5 39.7187C31.1142 39.7187 39.7187 31.1142 39.7187 20.5C39.7187 9.8858 31.1142 1.28125 20.5 1.28125ZM32.2777 32.2777C29.3573 35.1894 25.4575 36.9095 21.3381 37.1029C17.2187 37.2963 13.1748 35.9491 9.99449 33.3238C6.81415 30.6985 4.72514 26.9831 4.1345 22.9017C3.54386 18.8203 4.49391 14.6652 6.79953 11.246C9.10514 7.82679 12.6012 5.38845 16.6064 4.40608C20.6116 3.42371 24.8391 3.96769 28.4651 5.93202C32.0912 7.89636 34.856 11.1403 36.2209 15.0318C37.5858 18.9233 37.453 23.1836 35.8483 26.9826C35.012 28.9621 33.7994 30.7604 32.2777 32.2777Z" fill="black"/>
<path d="M11.3967 19.301L13.2087 21.1129L19.2188 15.1029V30.1094H21.7813V15.1029L27.7914 21.1129L29.6035 19.301L20.5001 10.1977L11.3967 19.301V19.301Z" fill="black"/>
</svg>
