<svg width="41" height="41" viewBox="0 0 41 41" fill="none" xmlns="http://www.w3.org/2000/svg">
<path d="M20.5 36.9C24.8496 36.9 29.021 35.1721 32.0966 32.0966C35.1721 29.021 36.9 24.8496 36.9 20.5C36.9 16.1504 35.1721 11.979 32.0966 8.90345C29.021 5.82785 24.8496 4.1 20.5 4.1C16.1504 4.1 11.979 5.82785 8.90345 8.90345C5.82785 11.979 4.1 16.1504 4.1 20.5C4.1 24.8496 5.82785 29.021 8.90345 32.0966C11.979 35.1721 16.1504 36.9 20.5 36.9V36.9ZM20.5 41C9.17785 41 0 31.8221 0 20.5C0 9.17785 9.17785 0 20.5 0C31.8221 0 41 9.17785 41 20.5C41 31.8221 31.8221 41 20.5 41Z" fill="#0D0D0D"/>
<path d="M26.4924 13.3782H14.5081C12.1567 13.3782 10.2502 15.2642 10.2502 17.5889V23.5134C10.2502 25.8401 12.1567 27.7241 14.5081 27.7241H26.4924C28.8437 27.7241 30.7502 25.8381 30.7502 23.5134V17.5889C30.7502 15.2621 28.8437 13.3782 26.4924 13.3782ZM23.6142 20.8402L18.0074 23.4847C17.9731 23.5009 17.9353 23.5082 17.8974 23.5059C17.8596 23.5036 17.8229 23.4918 17.7908 23.4715C17.7587 23.4513 17.7323 23.4233 17.7139 23.3901C17.6955 23.3569 17.6857 23.3197 17.6856 23.2817V17.8287C17.6859 17.7903 17.6961 17.7526 17.7151 17.7192C17.7341 17.6858 17.7613 17.6578 17.7942 17.6379C17.827 17.618 17.8644 17.6068 17.9028 17.6054C17.9412 17.604 17.9794 17.6124 18.0136 17.6299L23.6183 20.4384C23.6551 20.4576 23.686 20.4867 23.7073 20.5224C23.7287 20.5581 23.7398 20.5989 23.7393 20.6405C23.7389 20.6821 23.727 20.7228 23.7049 20.758C23.6828 20.7932 23.6514 20.8217 23.6142 20.8402V20.8402Z" fill="#0D0D0D"/>
</svg>
