<svg width="51" height="41" viewBox="0 0 51 41" fill="none" xmlns="http://www.w3.org/2000/svg">
<path d="M9.26052 4.71155C9.50219 3.96144 10.2862 3.55592 11.0117 3.8058L28.088 9.68762C28.8135 9.9375 28.7906 9.27094 28.5489 10.0211L19.7749 40.0205C19.5332 40.7706 18.7492 41.1761 18.0237 40.9262L0.94733 35.0444C0.221867 34.7945 -0.170326 33.9839 0.0713425 33.2338L9.26052 4.71155Z" fill="#0D0F87"/>
<path d="M31.2251 0.979519C31.4668 0.229405 32.2508 -0.176113 32.9763 0.0737667L50.0527 5.95559C50.7781 6.20547 51.1703 7.01613 50.9287 7.76624L41.7395 36.2884C41.4978 37.0386 40.7138 37.4441 39.9883 37.1942L22.9119 31.3124C22.1865 31.0625 22.2361 31.5291 22.4778 30.7789L31.2251 0.979519Z" fill="#0D0F87"/>
<path d="M12.0729 24H13.4049V21.12H15.9249V24H17.2479V17.331H15.9249V19.959H13.4049V17.331H12.0729V24ZM20.3334 20.526C20.5314 19.833 20.7294 19.077 20.9004 18.348H20.9454C21.1344 19.068 21.3144 19.833 21.5214 20.526L21.7194 21.255H20.1354L20.3334 20.526ZM18.0294 24H19.3794L19.8474 22.29H22.0074L22.4754 24H23.8704L21.7284 17.331H20.1624L18.0294 24ZM24.6501 24H25.9101V21.327C25.9101 20.562 25.8111 19.725 25.7481 19.005H25.7931L26.4681 20.436L28.3941 24H29.7441V17.331H28.4841V19.995C28.4841 20.751 28.5921 21.633 28.6551 22.326H28.6101L27.9441 20.886L26.0091 17.331H24.6501V24ZM31.3913 24H32.7233V17.331H31.3913V24ZM34.362 24H38.403V22.884H35.694V17.331H34.362V24Z" fill="white"/>
</svg>
