<svg width="123" height="41" viewBox="0 0 123 41" fill="none" xmlns="http://www.w3.org/2000/svg">
<rect x="1" width="122" height="41" fill="#FBFBFB"/>
<path d="M54.9308 14.716H51.2228V12.952H48.8288V14.716H45.1568V16.57H54.9128L54.9308 14.716ZM48.2348 20.35C48.2348 19.45 48.9728 18.964 50.0348 18.964C51.0788 18.964 51.8348 19.45 51.8348 20.35C51.8348 21.268 51.0788 21.754 50.0348 21.754C48.9728 21.754 48.2348 21.268 48.2348 20.35ZM54.1028 20.35C54.1028 18.478 52.4108 17.164 50.0348 17.164C47.6588 17.164 45.9668 18.478 45.9668 20.35C45.9668 22.258 47.6588 23.554 50.0348 23.554C52.4108 23.554 54.1028 22.258 54.1028 20.35ZM49.8908 24.454H47.5148V29.26H58.8008V27.37H49.8908V24.454ZM58.2068 18.028V12.97H55.8308V25.372H58.2068V19.99H60.4028V18.028H58.2068ZM75.4854 12.97H73.0914V21.268H75.4854V12.97ZM64.2534 17.236C64.2534 16.066 65.1714 15.364 66.3954 15.364C67.6194 15.364 68.5014 16.066 68.5014 17.236C68.5014 18.424 67.6194 19.108 66.3954 19.108C65.1714 19.108 64.2534 18.424 64.2534 17.236ZM70.8054 17.236C70.8054 15.04 68.9154 13.456 66.3954 13.456C63.8574 13.456 61.9494 15.04 61.9494 17.236C61.9494 19.45 63.8574 21.034 66.3954 21.034C68.9154 21.034 70.8054 19.45 70.8054 17.236ZM66.8094 27.514V26.47H75.4854V21.952H64.4334V23.77H73.1274V24.778H64.4514V29.35H75.8994V27.514H66.8094ZM83.53 16.552H85.942V14.626H78.562V16.552H81.226V17.362C81.226 20.206 80.362 23.176 77.95 24.706L79.354 26.452C80.848 25.516 81.82 23.896 82.396 22.006C82.936 23.752 83.89 25.174 85.348 26.056L86.734 24.328C84.34 22.924 83.53 20.134 83.53 17.362V16.552ZM86.896 18.622H84.79V20.548H86.896V28.792H89.11V13.24H86.896V18.622ZM90.244 12.952V29.53H92.494V12.952H90.244ZM97.2806 17.938C97.2806 16.642 98.1986 15.886 99.4586 15.886C100.701 15.886 101.637 16.642 101.637 17.938C101.637 19.216 100.701 19.99 99.4586 19.99C98.1986 19.99 97.2806 19.216 97.2806 17.938ZM103.941 17.938C103.941 15.58 101.997 13.87 99.4586 13.87C96.9026 13.87 94.9586 15.58 94.9586 17.938C94.9586 20.296 96.9026 21.988 99.4586 21.988C101.997 21.988 103.941 20.296 103.941 17.938ZM96.8306 25.318H105.507V29.566H107.883V23.41H96.8306V25.318ZM110.007 17.056V15.13H107.883V12.97H105.507V22.744H107.883V20.656H110.007V18.712H107.883V17.056H110.007Z" fill="black"/>
<path d="M6.71842 9.21764C6.89374 8.70537 7.46254 8.42843 7.98886 8.59908L20.3776 12.6159C20.9039 12.7866 20.8873 12.3314 20.712 12.8436L14.3465 33.3311C14.1711 33.8433 13.6023 34.1203 13.076 33.9496L0.687279 29.9328C0.160962 29.7621 -0.12357 29.2085 0.0517583 28.6962L6.71842 9.21764Z" fill="#0D0F87"/>
<path d="M22.6535 6.66894C22.8289 6.15667 23.3977 5.87973 23.924 6.05038L36.3127 10.0672C36.839 10.2379 37.1236 10.7915 36.9482 11.3038L30.2816 30.7824C30.1063 31.2946 29.5375 31.5716 29.0111 31.4009L16.6224 27.3841C16.0961 27.2134 16.1321 27.532 16.3074 27.0198L22.6535 6.66894Z" fill="#0D0F87"/>
<path d="M5.07291 23H6.40491V20.12H8.92491V23H10.2479V16.331H8.92491V18.959H6.40491V16.331H5.07291V23ZM13.3334 19.526C13.5314 18.833 13.7294 18.077 13.9004 17.348H13.9454C14.1344 18.068 14.3144 18.833 14.5214 19.526L14.7194 20.255H13.1354L13.3334 19.526ZM11.0294 23H12.3794L12.8474 21.29H15.0074L15.4754 23H16.8704L14.7284 16.331H13.1624L11.0294 23ZM17.6501 23H18.9101V20.327C18.9101 19.562 18.8111 18.725 18.7481 18.005H18.7931L19.4681 19.436L21.3941 23H22.7441V16.331H21.4841V18.995C21.4841 19.751 21.5921 20.633 21.6551 21.326H21.6101L20.9441 19.886L19.0091 16.331H17.6501V23ZM24.3913 23H25.7233V16.331H24.3913V23ZM27.362 23H31.403V21.884H28.694V16.331H27.362V23Z" fill="white"/>
</svg>
